<svg width="28" height="28" viewBox="0 0 28 28" fill="none" xmlns="http://www.w3.org/2000/svg">
<rect x="28" width="28" height="28" transform="rotate(90 28 0)" fill="white"/>
<path d="M17 6C17 4.89543 16.1046 4 15 4C13.8954 4 13 4.89543 13 6C13 7.10457 13.8954 8 15 8C16.1046 8 17 7.10457 17 6Z" fill="#767676"/>
<path d="M17 14C17 12.8954 16.1046 12 15 12C13.8954 12 13 12.8954 13 14C13 15.1046 13.8954 16 15 16C16.1046 16 17 15.1046 17 14Z" fill="#767676"/>
<path d="M17 22C17 20.8954 16.1046 20 15 20C13.8954 20 13 20.8954 13 22C13 23.1046 13.8954 24 15 24C16.1046 24 17 23.1046 17 22Z" fill="#767676"/>
</svg>
